<mxfile host="app.diagrams.net" modified="2021-04-20T03:47:41.274Z" agent="5.0 (Windows NT 10.0; Win64; x64) AppleWebKit/537.36 (KHTML, like Gecko) Chrome/89.0.4389.128 Safari/537.36" etag="x2-vd8e7EdTPHX-XIb6N" version="14.6.1" type="github">
  <diagram id="yHl79SLc5STz_uESL3kn" name="Page-1">
    <mxGraphModel dx="1422" dy="794" grid="1" gridSize="10" guides="1" tooltips="1" connect="1" arrows="1" fold="1" page="1" pageScale="1" pageWidth="827" pageHeight="1169" math="0" shadow="0">
      <root>
        <mxCell id="0" />
        <mxCell id="1" parent="0" />
        <mxCell id="yPEm6KqQ1byeOCbyu3sl-3" value="" style="edgeStyle=orthogonalEdgeStyle;rounded=0;orthogonalLoop=1;jettySize=auto;html=1;" edge="1" parent="1" source="yPEm6KqQ1byeOCbyu3sl-1" target="yPEm6KqQ1byeOCbyu3sl-2">
          <mxGeometry relative="1" as="geometry" />
        </mxCell>
        <mxCell id="yPEm6KqQ1byeOCbyu3sl-11" style="edgeStyle=orthogonalEdgeStyle;rounded=0;orthogonalLoop=1;jettySize=auto;html=1;entryX=0;entryY=0.5;entryDx=0;entryDy=0;" edge="1" parent="1" source="yPEm6KqQ1byeOCbyu3sl-1" target="yPEm6KqQ1byeOCbyu3sl-9">
          <mxGeometry relative="1" as="geometry" />
        </mxCell>
        <mxCell id="yPEm6KqQ1byeOCbyu3sl-14" style="edgeStyle=orthogonalEdgeStyle;rounded=0;orthogonalLoop=1;jettySize=auto;html=1;entryX=0;entryY=0.5;entryDx=0;entryDy=0;" edge="1" parent="1" source="yPEm6KqQ1byeOCbyu3sl-1" target="yPEm6KqQ1byeOCbyu3sl-13">
          <mxGeometry relative="1" as="geometry" />
        </mxCell>
        <mxCell id="yPEm6KqQ1byeOCbyu3sl-16" style="edgeStyle=orthogonalEdgeStyle;rounded=0;orthogonalLoop=1;jettySize=auto;html=1;entryX=0;entryY=0.5;entryDx=0;entryDy=0;" edge="1" parent="1" source="yPEm6KqQ1byeOCbyu3sl-1" target="yPEm6KqQ1byeOCbyu3sl-15">
          <mxGeometry relative="1" as="geometry" />
        </mxCell>
        <mxCell id="yPEm6KqQ1byeOCbyu3sl-18" style="edgeStyle=orthogonalEdgeStyle;rounded=0;orthogonalLoop=1;jettySize=auto;html=1;entryX=0;entryY=0.5;entryDx=0;entryDy=0;" edge="1" parent="1" source="yPEm6KqQ1byeOCbyu3sl-1" target="yPEm6KqQ1byeOCbyu3sl-17">
          <mxGeometry relative="1" as="geometry" />
        </mxCell>
        <mxCell id="yPEm6KqQ1byeOCbyu3sl-1" value="&lt;div style=&quot;font-family: &amp;#34;consolas&amp;#34; , &amp;#34;courier new&amp;#34; , monospace ; font-size: 18px ; line-height: 24px&quot;&gt;&lt;font color=&quot;#795e26&quot;&gt;&lt;span style=&quot;background-color: rgb(255 , 255 , 255)&quot;&gt;main&lt;/span&gt;&lt;/font&gt;&lt;/div&gt;" style="rounded=0;whiteSpace=wrap;html=1;" vertex="1" parent="1">
          <mxGeometry x="60" y="320" width="120" height="60" as="geometry" />
        </mxCell>
        <mxCell id="yPEm6KqQ1byeOCbyu3sl-7" value="" style="edgeStyle=orthogonalEdgeStyle;rounded=0;orthogonalLoop=1;jettySize=auto;html=1;" edge="1" parent="1" source="yPEm6KqQ1byeOCbyu3sl-2" target="yPEm6KqQ1byeOCbyu3sl-6">
          <mxGeometry relative="1" as="geometry" />
        </mxCell>
        <mxCell id="yPEm6KqQ1byeOCbyu3sl-12" style="edgeStyle=orthogonalEdgeStyle;rounded=0;orthogonalLoop=1;jettySize=auto;html=1;entryX=0;entryY=0.5;entryDx=0;entryDy=0;" edge="1" parent="1" source="yPEm6KqQ1byeOCbyu3sl-2" target="yPEm6KqQ1byeOCbyu3sl-8">
          <mxGeometry relative="1" as="geometry" />
        </mxCell>
        <mxCell id="yPEm6KqQ1byeOCbyu3sl-2" value="&lt;div style=&quot;color: rgb(171 , 178 , 191) ; background-color: rgb(40 , 44 , 52) ; font-family: &amp;#34;consolas&amp;#34; , &amp;#34;courier new&amp;#34; , monospace ; font-size: 18px ; line-height: 24px&quot;&gt;&lt;div style=&quot;color: rgb(93 , 93 , 95) ; background-color: rgb(235 , 238 , 245) ; font-family: &amp;#34;consolas&amp;#34; , &amp;#34;courier new&amp;#34; , monospace ; line-height: 24px&quot;&gt;&lt;div style=&quot;color: rgb(0 , 0 , 0) ; background-color: rgb(255 , 255 , 255) ; font-family: &amp;#34;consolas&amp;#34; , &amp;#34;courier new&amp;#34; , monospace ; line-height: 24px&quot;&gt;&lt;span style=&quot;color: #795e26&quot;&gt;init_param&lt;/span&gt;&lt;/div&gt;&lt;/div&gt;&lt;/div&gt;" style="whiteSpace=wrap;html=1;rounded=0;" vertex="1" parent="1">
          <mxGeometry x="260" y="320" width="120" height="60" as="geometry" />
        </mxCell>
        <mxCell id="yPEm6KqQ1byeOCbyu3sl-6" value="&lt;div style=&quot;background-color: rgb(255 , 255 , 255) ; font-family: &amp;#34;consolas&amp;#34; , &amp;#34;courier new&amp;#34; , monospace ; font-size: 18px ; line-height: 24px&quot;&gt;&lt;span style=&quot;color: #001080&quot;&gt;current_&lt;/span&gt;&lt;/div&gt;&lt;div style=&quot;background-color: rgb(255 , 255 , 255) ; font-family: &amp;#34;consolas&amp;#34; , &amp;#34;courier new&amp;#34; , monospace ; font-size: 18px ; line-height: 24px&quot;&gt;&lt;span style=&quot;color: #001080&quot;&gt;stream&lt;/span&gt;&amp;nbsp;=&amp;nbsp;&lt;span style=&quot;color: #098658&quot;&gt;0&lt;/span&gt;&lt;/div&gt;" style="whiteSpace=wrap;html=1;rounded=0;" vertex="1" parent="1">
          <mxGeometry x="460" y="320" width="120" height="60" as="geometry" />
        </mxCell>
        <mxCell id="yPEm6KqQ1byeOCbyu3sl-8" value="&lt;div style=&quot;background-color: rgb(255 , 255 , 255) ; font-family: &amp;#34;consolas&amp;#34; , &amp;#34;courier new&amp;#34; , monospace ; line-height: 24px&quot;&gt;&lt;div style=&quot;font-family: &amp;#34;consolas&amp;#34; , &amp;#34;courier new&amp;#34; , monospace ; line-height: 24px&quot;&gt;&lt;span style=&quot;color: rgb(0 , 16 , 128)&quot;&gt;&lt;font style=&quot;font-size: 14px&quot;&gt;stream_transfer&lt;/font&gt;&lt;/span&gt;&lt;/div&gt;&lt;div style=&quot;font-family: &amp;#34;consolas&amp;#34; , &amp;#34;courier new&amp;#34; , monospace ; line-height: 24px&quot;&gt;&lt;font size=&quot;3&quot;&gt;[&lt;span style=&quot;color: #001080&quot;&gt;current_stream&lt;/span&gt;].&lt;/font&gt;&lt;/div&gt;&lt;div style=&quot;font-family: &amp;#34;consolas&amp;#34; , &amp;#34;courier new&amp;#34; , monospace ; line-height: 24px&quot;&gt;&lt;span style=&quot;color: rgb(0 , 16 , 128)&quot;&gt;&lt;font size=&quot;3&quot;&gt;filename&lt;/font&gt;&lt;/span&gt;&lt;/div&gt;&lt;/div&gt;" style="whiteSpace=wrap;html=1;rounded=0;" vertex="1" parent="1">
          <mxGeometry x="460" y="400" width="160" height="90" as="geometry" />
        </mxCell>
        <mxCell id="yPEm6KqQ1byeOCbyu3sl-9" value="&lt;div style=&quot;background-color: rgb(40 , 44 , 52) ; font-family: &amp;#34;consolas&amp;#34; , &amp;#34;courier new&amp;#34; , monospace ; font-size: 18px ; line-height: 24px&quot;&gt;&lt;div style=&quot;background-color: rgb(235 , 238 , 245) ; font-family: &amp;#34;consolas&amp;#34; , &amp;#34;courier new&amp;#34; , monospace ; line-height: 24px&quot;&gt;&lt;div style=&quot;background-color: rgb(255 , 255 , 255) ; font-family: &amp;#34;consolas&amp;#34; , &amp;#34;courier new&amp;#34; , monospace ; line-height: 24px&quot;&gt;&lt;div style=&quot;color: rgb(0 , 0 , 0) ; font-family: &amp;#34;consolas&amp;#34; , &amp;#34;courier new&amp;#34; , monospace ; line-height: 24px&quot;&gt;&lt;span style=&quot;color: #795e26&quot;&gt;map_bsb&lt;/span&gt;&lt;/div&gt;&lt;div style=&quot;font-family: &amp;#34;consolas&amp;#34; , &amp;#34;courier new&amp;#34; , monospace ; line-height: 24px&quot;&gt;&lt;font color=&quot;#795e26&quot;&gt;申请内存&lt;/font&gt;&lt;/div&gt;&lt;/div&gt;&lt;/div&gt;&lt;/div&gt;" style="whiteSpace=wrap;html=1;rounded=0;" vertex="1" parent="1">
          <mxGeometry x="260" y="410" width="120" height="60" as="geometry" />
        </mxCell>
        <mxCell id="yPEm6KqQ1byeOCbyu3sl-13" value="&lt;div style=&quot;background-color: rgb(40 , 44 , 52) ; font-family: &amp;#34;consolas&amp;#34; , &amp;#34;courier new&amp;#34; , monospace ; line-height: 24px&quot;&gt;&lt;div style=&quot;background-color: rgb(235 , 238 , 245) ; font-family: &amp;#34;consolas&amp;#34; , &amp;#34;courier new&amp;#34; , monospace ; line-height: 24px&quot;&gt;&lt;div style=&quot;background-color: rgb(255 , 255 , 255) ; font-family: &amp;#34;consolas&amp;#34; , &amp;#34;courier new&amp;#34; , monospace ; line-height: 24px&quot;&gt;&lt;div style=&quot;color: rgb(0 , 0 , 0) ; font-family: &amp;#34;consolas&amp;#34; , &amp;#34;courier new&amp;#34; , monospace ; line-height: 24px&quot;&gt;&lt;div style=&quot;font-family: &amp;#34;consolas&amp;#34; , &amp;#34;courier new&amp;#34; , monospace ; line-height: 24px&quot;&gt;&lt;font style=&quot;font-size: 8px&quot;&gt;&lt;span style=&quot;color: rgb(121 , 94 , 38)&quot;&gt;pipe&lt;/span&gt;(&lt;span style=&quot;color: rgb(0 , 16 , 128)&quot;&gt;statistics_&lt;/span&gt;&lt;/font&gt;&lt;/div&gt;&lt;div style=&quot;font-family: &amp;#34;consolas&amp;#34; , &amp;#34;courier new&amp;#34; , monospace ; line-height: 24px&quot;&gt;&lt;font size=&quot;3&quot;&gt;&lt;span style=&quot;color: rgb(0 , 16 , 128)&quot;&gt;pipefd&lt;/span&gt;)&lt;/font&gt;&lt;/div&gt;&lt;/div&gt;&lt;/div&gt;&lt;/div&gt;&lt;/div&gt;" style="whiteSpace=wrap;html=1;rounded=0;" vertex="1" parent="1">
          <mxGeometry x="260" y="500" width="120" height="60" as="geometry" />
        </mxCell>
        <mxCell id="yPEm6KqQ1byeOCbyu3sl-15" value="&lt;div style=&quot;background-color: rgb(40 , 44 , 52) ; font-family: &amp;#34;consolas&amp;#34; , &amp;#34;courier new&amp;#34; , monospace ; line-height: 24px&quot;&gt;&lt;div style=&quot;background-color: rgb(235 , 238 , 245) ; font-family: &amp;#34;consolas&amp;#34; , &amp;#34;courier new&amp;#34; , monospace ; line-height: 24px&quot;&gt;&lt;div style=&quot;background-color: rgb(255 , 255 , 255) ; font-family: &amp;#34;consolas&amp;#34; , &amp;#34;courier new&amp;#34; , monospace ; line-height: 24px&quot;&gt;&lt;div style=&quot;color: rgb(0 , 0 , 0) ; font-family: &amp;#34;consolas&amp;#34; , &amp;#34;courier new&amp;#34; , monospace ; line-height: 24px&quot;&gt;&lt;div style=&quot;font-family: &amp;#34;consolas&amp;#34; , &amp;#34;courier new&amp;#34; , monospace ; line-height: 24px&quot;&gt;&lt;div style=&quot;font-family: &amp;#34;consolas&amp;#34; , &amp;#34;courier new&amp;#34; , monospace ; line-height: 24px&quot;&gt;&lt;span style=&quot;color: rgb(121 , 94 , 38)&quot;&gt;&lt;font style=&quot;font-size: 10px&quot;&gt;do_statistics&lt;/font&gt;&lt;/span&gt;&lt;/div&gt;&lt;div style=&quot;font-family: &amp;#34;consolas&amp;#34; , &amp;#34;courier new&amp;#34; , monospace ; line-height: 24px&quot;&gt;&lt;span style=&quot;color: rgb(121 , 94 , 38)&quot;&gt;&lt;font size=&quot;3&quot;&gt;//prhread&lt;/font&gt;&lt;/span&gt;&lt;/div&gt;&lt;/div&gt;&lt;/div&gt;&lt;/div&gt;&lt;/div&gt;&lt;/div&gt;" style="whiteSpace=wrap;html=1;rounded=0;" vertex="1" parent="1">
          <mxGeometry x="260" y="590" width="120" height="60" as="geometry" />
        </mxCell>
        <mxCell id="yPEm6KqQ1byeOCbyu3sl-20" value="" style="edgeStyle=orthogonalEdgeStyle;rounded=0;orthogonalLoop=1;jettySize=auto;html=1;" edge="1" parent="1" source="yPEm6KqQ1byeOCbyu3sl-17" target="yPEm6KqQ1byeOCbyu3sl-19">
          <mxGeometry relative="1" as="geometry" />
        </mxCell>
        <mxCell id="yPEm6KqQ1byeOCbyu3sl-22" style="edgeStyle=orthogonalEdgeStyle;rounded=0;orthogonalLoop=1;jettySize=auto;html=1;entryX=0;entryY=0.5;entryDx=0;entryDy=0;" edge="1" parent="1" source="yPEm6KqQ1byeOCbyu3sl-17" target="yPEm6KqQ1byeOCbyu3sl-21">
          <mxGeometry relative="1" as="geometry" />
        </mxCell>
        <mxCell id="yPEm6KqQ1byeOCbyu3sl-27" style="edgeStyle=orthogonalEdgeStyle;rounded=0;orthogonalLoop=1;jettySize=auto;html=1;entryX=0;entryY=0.5;entryDx=0;entryDy=0;" edge="1" parent="1" source="yPEm6KqQ1byeOCbyu3sl-17" target="yPEm6KqQ1byeOCbyu3sl-25">
          <mxGeometry relative="1" as="geometry" />
        </mxCell>
        <mxCell id="yPEm6KqQ1byeOCbyu3sl-17" value="&lt;div style=&quot;background-color: rgb(40 , 44 , 52) ; font-family: &amp;#34;consolas&amp;#34; , &amp;#34;courier new&amp;#34; , monospace ; line-height: 24px&quot;&gt;&lt;div style=&quot;background-color: rgb(235 , 238 , 245) ; font-family: &amp;#34;consolas&amp;#34; , &amp;#34;courier new&amp;#34; , monospace ; line-height: 24px&quot;&gt;&lt;div style=&quot;background-color: rgb(255 , 255 , 255) ; font-family: &amp;#34;consolas&amp;#34; , &amp;#34;courier new&amp;#34; , monospace ; line-height: 24px&quot;&gt;&lt;div style=&quot;color: rgb(0 , 0 , 0) ; font-family: &amp;#34;consolas&amp;#34; , &amp;#34;courier new&amp;#34; , monospace ; line-height: 24px&quot;&gt;&lt;div style=&quot;font-family: &amp;#34;consolas&amp;#34; , &amp;#34;courier new&amp;#34; , monospace ; line-height: 24px&quot;&gt;&lt;div style=&quot;font-family: &amp;#34;consolas&amp;#34; , &amp;#34;courier new&amp;#34; , monospace ; line-height: 24px&quot;&gt;&lt;div style=&quot;font-family: &amp;#34;consolas&amp;#34; , &amp;#34;courier new&amp;#34; , monospace ; line-height: 24px&quot;&gt;&lt;span style=&quot;color: rgb(121 , 94 , 38)&quot;&gt;&lt;font style=&quot;font-size: 10px&quot;&gt;capture_encoded&lt;/font&gt;&lt;/span&gt;&lt;/div&gt;&lt;div style=&quot;font-family: &amp;#34;consolas&amp;#34; , &amp;#34;courier new&amp;#34; , monospace ; line-height: 24px&quot;&gt;&lt;span style=&quot;color: rgb(121 , 94 , 38)&quot;&gt;&lt;font size=&quot;3&quot;&gt;_video&lt;/font&gt;&lt;/span&gt;&lt;/div&gt;&lt;/div&gt;&lt;/div&gt;&lt;/div&gt;&lt;/div&gt;&lt;/div&gt;&lt;/div&gt;" style="whiteSpace=wrap;html=1;rounded=0;" vertex="1" parent="1">
          <mxGeometry x="260" y="680" width="120" height="60" as="geometry" />
        </mxCell>
        <mxCell id="yPEm6KqQ1byeOCbyu3sl-19" value="&lt;div style=&quot;background-color: rgb(40 , 44 , 52) ; font-family: &amp;#34;consolas&amp;#34; , &amp;#34;courier new&amp;#34; , monospace ; line-height: 24px&quot;&gt;&lt;div style=&quot;background-color: rgb(235 , 238 , 245) ; font-family: &amp;#34;consolas&amp;#34; , &amp;#34;courier new&amp;#34; , monospace ; line-height: 24px&quot;&gt;&lt;div style=&quot;background-color: rgb(255 , 255 , 255) ; font-family: &amp;#34;consolas&amp;#34; , &amp;#34;courier new&amp;#34; , monospace ; line-height: 24px&quot;&gt;&lt;div style=&quot;color: rgb(0 , 0 , 0) ; font-family: &amp;#34;consolas&amp;#34; , &amp;#34;courier new&amp;#34; , monospace ; line-height: 24px&quot;&gt;&lt;div style=&quot;font-family: &amp;#34;consolas&amp;#34; , &amp;#34;courier new&amp;#34; , monospace ; line-height: 24px&quot;&gt;&lt;div style=&quot;font-family: &amp;#34;consolas&amp;#34; , &amp;#34;courier new&amp;#34; , monospace ; line-height: 24px&quot;&gt;&lt;div style=&quot;font-family: &amp;#34;consolas&amp;#34; , &amp;#34;courier new&amp;#34; , monospace ; line-height: 24px&quot;&gt;&lt;div style=&quot;font-family: &amp;#34;consolas&amp;#34; , &amp;#34;courier new&amp;#34; , monospace ; line-height: 24px&quot;&gt;&lt;font style=&quot;font-size: 10px&quot;&gt;&lt;span style=&quot;color: rgb(121 , 94 , 38)&quot;&gt;flush_frame&lt;/span&gt;&lt;/font&gt;&lt;/div&gt;&lt;div style=&quot;font-family: &amp;#34;consolas&amp;#34; , &amp;#34;courier new&amp;#34; , monospace ; line-height: 24px&quot;&gt;&lt;font style=&quot;font-size: 10px&quot;&gt;&lt;span style=&quot;color: rgb(121 , 94 , 38)&quot;&gt;_desc&lt;/span&gt;();&lt;/font&gt;&lt;/div&gt;&lt;/div&gt;&lt;/div&gt;&lt;/div&gt;&lt;/div&gt;&lt;/div&gt;&lt;/div&gt;&lt;/div&gt;" style="whiteSpace=wrap;html=1;rounded=0;" vertex="1" parent="1">
          <mxGeometry x="460" y="680" width="120" height="60" as="geometry" />
        </mxCell>
        <mxCell id="yPEm6KqQ1byeOCbyu3sl-21" value="&lt;div style=&quot;background-color: rgb(40 , 44 , 52) ; font-family: &amp;#34;consolas&amp;#34; , &amp;#34;courier new&amp;#34; , monospace ; line-height: 24px&quot;&gt;&lt;div style=&quot;background-color: rgb(235 , 238 , 245) ; font-family: &amp;#34;consolas&amp;#34; , &amp;#34;courier new&amp;#34; , monospace ; line-height: 24px&quot;&gt;&lt;div style=&quot;background-color: rgb(255 , 255 , 255) ; font-family: &amp;#34;consolas&amp;#34; , &amp;#34;courier new&amp;#34; , monospace ; line-height: 24px&quot;&gt;&lt;div style=&quot;color: rgb(0 , 0 , 0) ; font-family: &amp;#34;consolas&amp;#34; , &amp;#34;courier new&amp;#34; , monospace ; line-height: 24px&quot;&gt;&lt;div style=&quot;font-family: &amp;#34;consolas&amp;#34; , &amp;#34;courier new&amp;#34; , monospace ; line-height: 24px&quot;&gt;&lt;div style=&quot;font-family: &amp;#34;consolas&amp;#34; , &amp;#34;courier new&amp;#34; , monospace ; line-height: 24px&quot;&gt;&lt;div style=&quot;font-family: &amp;#34;consolas&amp;#34; , &amp;#34;courier new&amp;#34; , monospace ; line-height: 24px&quot;&gt;&lt;div style=&quot;font-family: &amp;#34;consolas&amp;#34; , &amp;#34;courier new&amp;#34; , monospace ; line-height: 24px&quot;&gt;&lt;font style=&quot;font-size: 10px&quot;&gt;&lt;span style=&quot;color: rgb(121 , 94 , 38)&quot;&gt;flush_frame&lt;/span&gt;&lt;/font&gt;&lt;/div&gt;&lt;div style=&quot;font-family: &amp;#34;consolas&amp;#34; , &amp;#34;courier new&amp;#34; , monospace ; line-height: 24px&quot;&gt;&lt;font style=&quot;font-size: 10px&quot;&gt;&lt;span style=&quot;color: rgb(121 , 94 , 38)&quot;&gt;_desc&lt;/span&gt;();&lt;/font&gt;&lt;/div&gt;&lt;/div&gt;&lt;/div&gt;&lt;/div&gt;&lt;/div&gt;&lt;/div&gt;&lt;/div&gt;&lt;/div&gt;" style="whiteSpace=wrap;html=1;rounded=0;" vertex="1" parent="1">
          <mxGeometry x="460" y="760" width="120" height="60" as="geometry" />
        </mxCell>
        <mxCell id="yPEm6KqQ1byeOCbyu3sl-29" style="edgeStyle=orthogonalEdgeStyle;rounded=0;orthogonalLoop=1;jettySize=auto;html=1;entryX=0;entryY=0.5;entryDx=0;entryDy=0;" edge="1" parent="1" source="yPEm6KqQ1byeOCbyu3sl-25" target="yPEm6KqQ1byeOCbyu3sl-28">
          <mxGeometry relative="1" as="geometry" />
        </mxCell>
        <mxCell id="yPEm6KqQ1byeOCbyu3sl-32" style="edgeStyle=orthogonalEdgeStyle;rounded=0;orthogonalLoop=1;jettySize=auto;html=1;entryX=0;entryY=0.5;entryDx=0;entryDy=0;" edge="1" parent="1" source="yPEm6KqQ1byeOCbyu3sl-25" target="yPEm6KqQ1byeOCbyu3sl-31">
          <mxGeometry relative="1" as="geometry" />
        </mxCell>
        <mxCell id="yPEm6KqQ1byeOCbyu3sl-25" value="&lt;div style=&quot;background-color: rgb(40 , 44 , 52) ; font-family: &amp;#34;consolas&amp;#34; , &amp;#34;courier new&amp;#34; , monospace ; line-height: 24px&quot;&gt;&lt;div style=&quot;background-color: rgb(235 , 238 , 245) ; font-family: &amp;#34;consolas&amp;#34; , &amp;#34;courier new&amp;#34; , monospace ; line-height: 24px&quot;&gt;&lt;div style=&quot;background-color: rgb(255 , 255 , 255) ; font-family: &amp;#34;consolas&amp;#34; , &amp;#34;courier new&amp;#34; , monospace ; line-height: 24px&quot;&gt;&lt;div style=&quot;color: rgb(0 , 0 , 0) ; font-family: &amp;#34;consolas&amp;#34; , &amp;#34;courier new&amp;#34; , monospace ; line-height: 24px&quot;&gt;&lt;div style=&quot;font-family: &amp;#34;consolas&amp;#34; , &amp;#34;courier new&amp;#34; , monospace ; line-height: 24px&quot;&gt;&lt;div style=&quot;font-family: &amp;#34;consolas&amp;#34; , &amp;#34;courier new&amp;#34; , monospace ; line-height: 24px&quot;&gt;&lt;div style=&quot;font-family: &amp;#34;consolas&amp;#34; , &amp;#34;courier new&amp;#34; , monospace ; line-height: 24px&quot;&gt;&lt;div style=&quot;font-family: &amp;#34;consolas&amp;#34; , &amp;#34;courier new&amp;#34; , monospace ; line-height: 24px&quot;&gt;&lt;div style=&quot;font-family: &amp;#34;consolas&amp;#34; , &amp;#34;courier new&amp;#34; , monospace ; line-height: 24px&quot;&gt;&lt;span style=&quot;color: rgb(121 , 94 , 38)&quot;&gt;&lt;font style=&quot;font-size: 14px&quot;&gt;write_stream&lt;/font&gt;&lt;/span&gt;&lt;/div&gt;&lt;/div&gt;&lt;/div&gt;&lt;/div&gt;&lt;/div&gt;&lt;/div&gt;&lt;/div&gt;&lt;/div&gt;&lt;/div&gt;" style="whiteSpace=wrap;html=1;rounded=0;" vertex="1" parent="1">
          <mxGeometry x="460" y="840" width="120" height="60" as="geometry" />
        </mxCell>
        <mxCell id="yPEm6KqQ1byeOCbyu3sl-28" value="&lt;div style=&quot;background-color: rgb(40 , 44 , 52) ; font-family: &amp;#34;consolas&amp;#34; , &amp;#34;courier new&amp;#34; , monospace ; line-height: 24px&quot;&gt;&lt;div style=&quot;background-color: rgb(235 , 238 , 245) ; font-family: &amp;#34;consolas&amp;#34; , &amp;#34;courier new&amp;#34; , monospace ; line-height: 24px&quot;&gt;&lt;div style=&quot;background-color: rgb(255 , 255 , 255) ; font-family: &amp;#34;consolas&amp;#34; , &amp;#34;courier new&amp;#34; , monospace ; line-height: 24px&quot;&gt;&lt;div style=&quot;color: rgb(0 , 0 , 0) ; font-family: &amp;#34;consolas&amp;#34; , &amp;#34;courier new&amp;#34; , monospace ; line-height: 24px&quot;&gt;&lt;div style=&quot;font-family: &amp;#34;consolas&amp;#34; , &amp;#34;courier new&amp;#34; , monospace ; line-height: 24px&quot;&gt;&lt;div style=&quot;font-family: &amp;#34;consolas&amp;#34; , &amp;#34;courier new&amp;#34; , monospace ; line-height: 24px&quot;&gt;&lt;div style=&quot;font-family: &amp;#34;consolas&amp;#34; , &amp;#34;courier new&amp;#34; , monospace ; line-height: 24px&quot;&gt;&lt;div style=&quot;font-family: &amp;#34;consolas&amp;#34; , &amp;#34;courier new&amp;#34; , monospace ; line-height: 24px&quot;&gt;&lt;div style=&quot;font-family: &amp;#34;consolas&amp;#34; , &amp;#34;courier new&amp;#34; , monospace ; line-height: 24px&quot;&gt;&lt;div style=&quot;font-family: &amp;#34;consolas&amp;#34; , &amp;#34;courier new&amp;#34; , monospace ; line-height: 24px&quot;&gt;&lt;font style=&quot;font-size: 8px&quot;&gt;&lt;span style=&quot;color: rgb(0 , 16 , 128)&quot;&gt;end_of_&lt;/span&gt;&lt;/font&gt;&lt;/div&gt;&lt;div style=&quot;font-family: &amp;#34;consolas&amp;#34; , &amp;#34;courier new&amp;#34; , monospace ; line-height: 24px&quot;&gt;&lt;font style=&quot;font-size: 8px&quot;&gt;&lt;span style=&quot;color: rgb(0 , 16 , 128)&quot;&gt;stream&lt;/span&gt;[&lt;span style=&quot;color: rgb(0 , 16 , 128)&quot;&gt;i&lt;/span&gt;]&amp;nbsp;=&amp;nbsp;&lt;span style=&quot;color: rgb(9 , 134 , 88)&quot;&gt;1&lt;/span&gt;;&lt;/font&gt;&lt;/div&gt;&lt;div style=&quot;font-family: &amp;#34;consolas&amp;#34; , &amp;#34;courier new&amp;#34; , monospace ; line-height: 24px&quot;&gt;&lt;font style=&quot;font-size: 8px&quot;&gt;//初始化的时候置为1&lt;/font&gt;&lt;/div&gt;&lt;/div&gt;&lt;/div&gt;&lt;/div&gt;&lt;/div&gt;&lt;/div&gt;&lt;/div&gt;&lt;/div&gt;&lt;/div&gt;&lt;/div&gt;" style="whiteSpace=wrap;html=1;rounded=0;" vertex="1" parent="1">
          <mxGeometry x="640" y="830" width="140" height="80" as="geometry" />
        </mxCell>
        <mxCell id="yPEm6KqQ1byeOCbyu3sl-31" value="&lt;div style=&quot;background-color: rgb(40 , 44 , 52) ; font-family: &amp;#34;consolas&amp;#34; , &amp;#34;courier new&amp;#34; , monospace ; line-height: 24px&quot;&gt;&lt;div style=&quot;background-color: rgb(235 , 238 , 245) ; font-family: &amp;#34;consolas&amp;#34; , &amp;#34;courier new&amp;#34; , monospace ; line-height: 24px&quot;&gt;&lt;div style=&quot;background-color: rgb(255 , 255 , 255) ; font-family: &amp;#34;consolas&amp;#34; , &amp;#34;courier new&amp;#34; , monospace ; line-height: 24px&quot;&gt;&lt;div style=&quot;color: rgb(0 , 0 , 0) ; font-family: &amp;#34;consolas&amp;#34; , &amp;#34;courier new&amp;#34; , monospace ; line-height: 24px&quot;&gt;&lt;div style=&quot;font-family: &amp;#34;consolas&amp;#34; , &amp;#34;courier new&amp;#34; , monospace ; line-height: 24px&quot;&gt;&lt;div style=&quot;font-family: &amp;#34;consolas&amp;#34; , &amp;#34;courier new&amp;#34; , monospace ; line-height: 24px&quot;&gt;&lt;div style=&quot;font-family: &amp;#34;consolas&amp;#34; , &amp;#34;courier new&amp;#34; , monospace ; line-height: 24px&quot;&gt;&lt;div style=&quot;font-family: &amp;#34;consolas&amp;#34; , &amp;#34;courier new&amp;#34; , monospace ; line-height: 24px&quot;&gt;&lt;div style=&quot;font-family: &amp;#34;consolas&amp;#34; , &amp;#34;courier new&amp;#34; , monospace ; line-height: 24px&quot;&gt;&lt;div style=&quot;font-family: &amp;#34;consolas&amp;#34; , &amp;#34;courier new&amp;#34; , monospace ; line-height: 24px&quot;&gt;&lt;div style=&quot;font-family: &amp;#34;consolas&amp;#34; , &amp;#34;courier new&amp;#34; , monospace ; line-height: 24px&quot;&gt;&lt;font style=&quot;font-size: 8px&quot;&gt;&lt;span style=&quot;color: rgb(0 , 0 , 255)&quot;&gt;AM_IOCTL&lt;/span&gt;(&lt;span style=&quot;color: rgb(0 , 16 , 128)&quot;&gt;fd_iav&lt;/span&gt;,&amp;nbsp;&lt;/font&gt;&lt;/div&gt;&lt;div style=&quot;font-family: &amp;#34;consolas&amp;#34; , &amp;#34;courier new&amp;#34; , monospace ; line-height: 24px&quot;&gt;&lt;font size=&quot;3&quot;&gt;IAV_IOC_QUERY_INFO,&lt;/font&gt;&lt;/div&gt;&lt;div style=&quot;font-family: &amp;#34;consolas&amp;#34; , &amp;#34;courier new&amp;#34; , monospace ; line-height: 24px&quot;&gt;&lt;font size=&quot;3&quot;&gt;&amp;nbsp;&amp;amp;&lt;span style=&quot;color: rgb(0 , 16 , 128)&quot;&gt;query_info&lt;/span&gt;);&lt;/font&gt;&lt;/div&gt;&lt;div style=&quot;font-family: &amp;#34;consolas&amp;#34; , &amp;#34;courier new&amp;#34; , monospace ; line-height: 24px&quot;&gt;&lt;font size=&quot;3&quot;&gt;//获取码流&lt;/font&gt;&lt;/div&gt;&lt;/div&gt;&lt;/div&gt;&lt;/div&gt;&lt;/div&gt;&lt;/div&gt;&lt;/div&gt;&lt;/div&gt;&lt;/div&gt;&lt;/div&gt;&lt;/div&gt;" style="whiteSpace=wrap;html=1;rounded=0;" vertex="1" parent="1">
          <mxGeometry x="640" y="940" width="200" height="120" as="geometry" />
        </mxCell>
      </root>
    </mxGraphModel>
  </diagram>
</mxfile>
